# AST/ASF file generated using VICON BodyLanguage
# -----------------------------------------------
:version 1.10
:name VICON
:units
  mass 1.0
  length 0.45
  angle deg
:documentation
   .ast/.asf automatically generated from VICON data using
   VICON BodyBuilder and BodyLanguage model FoxedUp or BRILLIANT.MOD
:root
   order TX TY TZ RX RY RZ
   axis XYZ
   position 0 0 0  
   orientation 0 0 0 
:bonedata
  begin
     id 1 
     name lhipjoint
     direction 0.624716 -0.669793 0.401383 
     length 2.38238 
     axis 0 0 0  XYZ
  end
  begin
     id 2 
     name lfemur
     direction 0.34202 -0.939693 0  
     length 6.4574  
     axis 0 0 20  XYZ
    dof rx ry rz
    limits (-160.0 20.0)
           (-70.0 70.0)
           (-60.0 70.0)
  end
  begin
     id 3 
     name ltibia
     direction 0.34202 -0.939693 0   
     length 7.68739   
     axis 0 0 20   XYZ
    dof rx
    limits (-10.0 170.0)
  end
  begin
     id 4 
     name lfoot
     direction 0.0681309 -0.187188 0.979959   
     length 2.46615   
     axis -90 7.62852e-016 20   XYZ
    dof rx rz
    limits (-45.0 90.0)
           (-70.0 20.0)
  end
  begin
     id 5 
     name ltoes
     direction 1.53566e-011 -4.21819e-011 1   
     length 1.2376   
     axis -90 7.62852e-016 20   XYZ
    dof rx
    limits (-90.0 20.0)
  end
  begin
     id 6 
     name rhipjoint
     direction -0.644473 -0.655875 0.393043   
     length 2.43293  
     axis 0 0 0  XYZ 
  end
  begin
     id 7 
     name rfemur
     direction -0.34202 -0.939693 0   
     length 6.7025   
     axis 0 0 -20   XYZ
    dof rx ry rz
    limits (-160.0 20.0)
           (-70.0 70.0)
           (-70.0 60.0)
  end
  begin
     id 8 
     name rtibia
     direction -0.34202 -0.939693 0   
     length 7.80547   
     axis 0 0 -20   XYZ
    dof rx
    limits (-10.0 170.0)
 end
 begin
     id 9 
     name rfoot
     direction -0.0756734 -0.207911 0.975216   
     length 2.40315  
     axis -90 -7.62852e-016 -20   XYZ
    dof rx rz
    limits (-45.0 90.0)
           (-20.0 70.0)
  end
  begin
     id 10 
     name rtoes
     direction -1.5353e-011 -4.21879e-011 1   
     length 1.20477   
     axis -90 -7.62852e-016 -20   XYZ
    dof rx
    limits (-90.0 20.0)
  end
  begin
     id 11 
     name lowerback
     direction 0.0160353 0.987463 -0.157037   
     length 2.18572   
     axis 0 0 0   XYZ
    dof rx ry rz
    limits (-20.0 45.0)
           (-30.0 30.0)
           (-30.0 30.0)
  end
  begin
     id 12 
     name upperback
     direction -0.00499661 0.999756 0.0215076   
     length 2.18016   
     axis 0 0 0   XYZ
    dof rx ry rz
    limits (-20.0 45.0)
           (-30.0 30.0)
           (-30.0 30.0)
  end
  begin
     id 13 
     name thorax
     direction -0.00921346 0.995333 0.0960619   
     length 2.24923   
     axis 0 0 0   XYZ
    dof rx ry rz
    limits (-20.0 45.0)
           (-30.0 30.0)
           (-30.0 30.0)
  end
  begin
     id 14 
     name lowerneck
     direction 0.0274184 0.991181 0.12965   
     length 1.70911   
     axis 0 0 0   XYZ
    dof rx ry rz
    limits (-20.0 45.0)
           (-30.0 30.0)
           (-30.0 30.0)
  end
  begin
     id 15 
     name upperneck
     direction 0.0015627 0.999959 -0.00893559   
     length 1.69312   
     axis 0 0 0   XYZ
    dof rx ry rz
    limits (-20.0 45.0)
           (-30.0 30.0)
           (-30.0 30.0)
  end
  begin
     id 16
     name head
     direction -0.00230242 0.999856 -0.0168327  
     length 1.80241  
     axis 0 0 0   XYZ
    dof rx ry rz
    limits (-20.0 45.0)
           (-30.0 30.0)
           (-30.0 30.0)
  end
  begin
     id 17 
     name lclavicle
     direction 0.955523 0.290741 -0.0494489  
     length 3.84275  
     axis 0 0 0   XYZ
    dof ry rz
    limits (-20.0 10.0)
           (0.0 20.0)
  end
  begin
     id 18 
     name lhumerus
     direction 1 -4.48967e-011 -3.18382e-028   
     length 5.17714   
     axis 180 -30 -90   XYZ
    dof rx ry rz
    limits (-60.0 90.0)
           (-90.0 90.0)
           (-90.0 90.0)
  end
  begin
     id 19
     name lradius
     direction 1 -4.48968e-011 -2.22911e-027   
     length 3.43679   
     axis 180 -30 -90   XYZ
    dof rx
    limits (-10.0 170.0)
  end
  begin
     id 20
     name lwrist
     direction 1 -4.48951e-011 -6.32245e-027   
     length 1.7184   
     axis 3.57107e-015 90 90   XYZ
    dof ry
    limits (-180.0 0.0)
 end
  begin
     id 21 
     name lhand
     direction 1 -4.48924e-011 -1.26431e-026   
     length 0.573117   
     axis 8.06912e-015 90 90   XYZ
    dof rx rz
    limits (-90.0 90.0)
           (-45.0 45.0)
  end
  begin
     id 22 
     name lfingers
     direction 1 -4.49001e-011 -2.52965e-026   
     length 0.462062   
     axis 1.61381e-014 90 90   XYZ
    dof rx
    limits (0.0 90.0)
  end
  begin
     id 23
     name lthumb
     direction 0.707107 -6.35008e-011 0.707107   
     length 0.663431   
     axis -90 45 -1.62303e-014   XYZ
    dof rx rz
    limits (-45.0 45.0)
           (-45.0 45.0)
  end
  begin
     id 24 
     name rclavicle
     direction -0.963917 0.256881 -0.0698287   
     length 3.73057  
     axis 0 0 0   XYZ 
    dof ry rz
    limits (-10.0 20.0)
           (-20.0 0.0)
  end
  begin
     id 25 
     name rhumerus
     direction -1 -4.48962e-011 -2.73982e-027  
     length 5.23908   
     axis 180 30 90   XYZ
    dof rx ry rz
    limits (-90.0 60.0)
           (-90.0 90.0)
           (-90.0 90.0)
  end
  begin
     id 26 
     name rradius
     direction -1 -4.48968e-011 -4.33218e-027   
     length 3.46485   
     axis 180 30 90   XYZ
    dof rx
    limits (-10.0 170.0)
  end
  begin
     id 27 
     name rwrist
     direction -1 -4.48989e-011 -6.32372e-027   
     length 1.73243   
     axis 3.57107e-015 -90 -90   XYZ
    dof ry
    limits (-180.0 0.0)
  end
  begin
     id 28
     name rhand
     direction -1 -4.48948e-011 -1.26448e-026   
     length 0.608752   
     axis 8.06912e-015 -90 -90   XYZ
    dof rx rz
    limits (-90.0 90.0)
           (-45.0 45.0)
  end
  begin
     id 29
     name rfingers
     direction -1 -4.48962e-011 -2.52913e-026   
     length 0.490792   
     axis 1.61381e-014 -90 -90   XYZ
    dof rx
    limits (0.0 90.0)
  end
  begin
     id 30
     name rthumb
     direction -0.707107 -6.34878e-011 0.707107   
     length 0.704682   
     axis -90 -45 1.62303e-014   XYZ
    dof rx rz
    limits (-45.0 45.0)
           (-45.0 45.0)
  end
:hierarchy
  begin
    root lhipjoint rhipjoint lowerback
    lhipjoint lfemur
    lfemur ltibia
    ltibia lfoot
    lfoot ltoes
    rhipjoint rfemur
    rfemur rtibia
    rtibia rfoot
    rfoot rtoes
    lowerback upperback
    upperback thorax
    thorax lowerneck lclavicle rclavicle
    lowerneck upperneck
    upperneck head
    lclavicle lhumerus
    lhumerus lradius
    lradius lwrist
    lwrist lhand lthumb
    lhand lfingers
    rclavicle rhumerus
    rhumerus rradius
    rradius rwrist
    rwrist rhand rthumb
    rhand rfingers
  end

#!OML:ASF G:\JayActor3\Patient Classification 1\Patient 1\Session 6\male.ASF
:FULLY-SPECIFIED
:DEGREES
771
root 1.08353 15.9854 -0.598384 17.9387 -44.0257 -11.9213
lowerback 27.471 -0.842744 -4.50807
upperback 5.29303 -2.67243 -0.977311
thorax -9.12521 -1.23791 2.43175
lowerneck -5.71188 -0.930219 4.05368
upperneck 18.3148 -2.03708 0.433715
head 6.4754 -0.751694 -0.692189
rclavicle 3.02153e-014 -1.59028e-015
rhumerus -36.7209 13.0594 -90.7708
rradius 125.887
rwrist 13.2342
rhand 15.643 -20.2515
rfingers 7.12502
rthumb 40.4565 -45.3381
lclavicle 3.02153e-014 -1.59028e-015
lhumerus -43.1537 -3.14293 89.2436
lradius 128.534
lwrist 1.51594
lhand 0.955729 41.4371
lfingers 7.12502
lthumb 26.5055 69.6031
rfemur -47.1567 -14.5913 28.6838
rtibia 67.5381
rfoot -18.4521 -12.1498
rtoes -15.6672
lfemur -38.3273 14.9719 -13.4081
ltibia 49.5075
lfoot -16.7653 5.91534
ltoes -7.31747
772
root 1.06423 15.9854 -0.594653 17.9226 -44.1362 -11.8508
lowerback 27.4637 -0.83415 -4.42942
upperback 5.29497 -2.63712 -0.957725
thorax -9.12452 -1.22345 2.39641
lowerneck -5.71576 -0.954001 4.04764
upperneck 18.2172 -2.07273 0.479976
head 6.445 -0.766543 -0.678181
rclavicle -4.92986e-014 5.88403e-014
rhumerus -36.7133 12.995 -90.7447
rradius 125.921
rwrist 13.2419
rhand 15.5813 -20.211
rfingers 7.12502
rthumb 40.3986 -45.3156
lclavicle -4.92986e-014 5.88403e-014
lhumerus -43.1092 -3.19345 89.2369
lradius 128.574
lwrist 1.52224
lhand 0.925299 41.4466
lfingers 7.12502
lthumb 26.4763 69.617
rfemur -46.765 -14.4598 28.6471
rtibia 66.4389
rfoot -18.1474 -12.2706
rtoes -15.9871
lfemur -38.2602 14.9816 -13.417
ltibia 49.5109
lfoot -16.8213 5.98835
ltoes -7.29088
773
root 1.04474 15.9835 -0.592109 17.8964 -44.2319 -11.7653
lowerback 27.4617 -0.830399 -4.31868
upperback 5.28936 -2.60097 -0.953504
thorax -9.13736 -1.20895 2.32555
lowerneck -5.7086 -0.984693 4.06437
upperneck 18.1157 -2.1209 0.531875
head 6.41116 -0.785679 -0.666918
rclavicle -2.70347e-014 4.45278e-014
rhumerus -36.7257 12.8953 -90.7384
rradius 125.959
rwrist 13.2473
rhand 15.5125 -20.184
rfingers 7.12502
rthumb 40.3339 -45.3085
lclavicle -2.70347e-014 4.45278e-014
lhumerus -43.0769 -3.28392 89.2117
lradius 128.62
lwrist 1.53847
lhand 0.888305 41.4607
lfingers 7.12502
lthumb 26.4409 69.6364
rfemur -46.3848 -14.3502 28.6167
rtibia 65.401
rfoot -17.8228 -12.3987
rtoes -16.1471
lfemur -38.2235 15.014 -13.4395
ltibia 49.5436
lfoot -16.8809 6.0216
ltoes -7.2685
774
root 1.02487 15.9795 -0.590859 17.861 -44.3142 -11.6623
lowerback 27.4605 -0.832092 -4.18866
upperback 5.27576 -2.56733 -0.958506
thorax -9.1607 -1.19571 2.23433
lowerneck -5.68525 -1.01849 4.09431
upperneck 18.0068 -2.17395 0.584409
head 6.37206 -0.806559 -0.657786
rclavicle 2.70347e-014 6.52014e-014
rhumerus -36.7551 12.7786 -90.7437
rradius 126.003
rwrist 13.2414
rhand 15.4303 -20.1719
rfingers 7.12502
rthumb 40.2566 -45.32
lclavicle 2.70347e-014 6.52014e-014
lhumerus -43.0629 -3.39629 89.1736
lradius 128.672
lwrist 1.56375
lhand 0.845861 41.4796
lfingers 7.12502
lthumb 26.4003 69.6615
rfemur -46.0202 -14.2638 28.5936
rtibia 64.4306
rfoot -17.4897 -12.5454
rtoes -16.1106
lfemur -38.2202 15.0651 -13.4766
ltibia 49.608
lfoot -16.9453 6.02065
ltoes -7.24405
775
root 1.00465 15.9736 -0.590914 17.8075 -44.3854 -11.5291
lowerback 27.4587 -0.840645 -4.06528
upperback 5.25619 -2.54427 -0.964245
thorax -9.18941 -1.18691 2.14973
lowerneck -5.65006 -1.04688 4.12351
upperneck 17.8917 -2.21758 0.630729
head 6.32903 -0.823718 -0.649688
rclavicle 2.54444e-014 -2.54444e-014
rhumerus -36.7949 12.6755 -90.7509
rradius 126.051
rwrist 13.2266
rhand 15.3383 -20.1663
rfingers 7.12502
rthumb 40.1699 -45.3409
lclavicle 2.54444e-014 -2.54444e-014
lhumerus -43.0664 -3.49671 89.1292
lradius 128.736
lwrist 1.61569
lhand 0.796972 41.4817
lfingers 7.12502
lthumb 26.3535 69.6705
rfemur -45.6684 -14.197 28.566
rtibia 63.5259
rfoot -17.1379 -12.7178
rtoes -15.8615
lfemur -38.247 15.1216 -13.5363
ltibia 49.7031
lfoot -17.0196 5.99553
ltoes -7.20566
776
root 0.983878 15.9657 -0.592341 17.7342 -44.4464 -11.3673
lowerback 27.4545 -0.855523 -3.9595
upperback 5.23543 -2.53313 -0.962405
thorax -9.21624 -1.18315 2.08763
lowerneck -5.61291 -1.06659 4.13717
upperneck 17.7741 -2.24555 0.667726
head 6.28513 -0.835155 -0.640845
rclavicle -1.43125e-014 1.90833e-014
rhumerus -36.8363 12.5998 -90.7489
rradius 126.105
rwrist 13.2018
rhand 15.2598 -20.1657
rfingers 7.12502
rthumb 40.0962 -45.3627
lclavicle -1.43125e-014 1.90833e-014
lhumerus -43.085 -3.56735 89.0884
lradius 128.81
lwrist 1.68353
lhand 0.750913 41.4646
lfingers 7.12502
lthumb 26.3094 69.66
rfemur -45.3225 -14.1455 28.5328
rtibia 62.6812
rfoot -16.7511 -12.9012
rtoes -15.3633
lfemur -38.2944 15.1524 -13.6085
ltibia 49.8276
lfoot -17.1066 5.97807
ltoes -7.13222
777
root 0.962592 15.9555 -0.595252 17.6383 -44.5006 -11.176
lowerback 27.4502 -0.870297 -3.866
upperback 5.2142 -2.52535 -0.961506
thorax -9.24283 -1.18065 2.03264
lowerneck -5.56643 -1.08401 4.15292
upperneck 17.6465 -2.26898 0.700635
head 6.23649 -0.844841 -0.633167
rclavicle -2.06736e-014 1.27222e-014
rhumerus -36.8831 12.5241 -90.7454
rradius 126.166
rwrist 13.1689
rhand 15.1913 -20.1669
rfingers 7.12502
rthumb 40.0317 -45.3834
lclavicle -2.06736e-014 1.27222e-014
lhumerus -43.115 -3.63224 89.0455
lradius 128.892
lwrist 1.76903
lhand 0.714426 41.4302
lfingers 7.12502
lthumb 26.2745 69.6308
rfemur -44.9761 -14.1058 28.4922
rtibia 61.8925
rfoot -16.4172 -13.0366
rtoes -14.6064
lfemur -38.3555 15.1556 -13.6904
ltibia 49.9801
lfoot -17.2147 5.96057
ltoes -6.98577
778
root 0.940696 15.9429 -0.599782 17.5243 -44.55 -10.9645
lowerback 27.4455 -0.883159 -3.78673
upperback 5.19605 -2.51866 -0.957103
thorax -9.26474 -1.17846 1.99002
lowerneck -5.51906 -1.10046 4.16873
upperneck 17.5141 -2.28925 0.725146
head 6.18614 -0.853728 -0.627891
rclavicle 1.15295e-013 -8.42847e-014
rhumerus -36.9298 12.4524 -90.7366
rradius 126.233
rwrist 13.1316
rhand 15.1463 -20.1626
rfingers 7.12502
rthumb 39.9893 -45.3919
lclavicle 1.15295e-013 -8.42847e-014
lhumerus -43.1532 -3.68933 89.004
lradius 128.977
lwrist 1.8651
lhand 0.683463 41.3829
lfingers 7.12502
lthumb 26.2448 69.5879
rfemur -44.6286 -14.0767 28.4513
rtibia 61.1664
rfoot -16.2067 -13.1354
rtoes -13.6819
lfemur -38.4259 15.1253 -13.7707
ltibia 50.1611
lfoot -17.3467 5.94897
ltoes -6.77598
779
root 0.918429 15.9277 -0.605914 17.3935 -44.5973 -10.7393
lowerback 27.4447 -0.893713 -3.7229
upperback 5.18278 -2.51266 -0.944755
thorax -9.28198 -1.17635 1.96539
lowerneck -5.47662 -1.11352 4.17002
upperneck 17.3802 -2.30313 0.749238
head 6.13643 -0.860481 -0.619941
rclavicle -6.2816e-014 -1.90833e-014
rhumerus -36.9727 12.3902 -90.717
rradius 126.303
rwrist 13.0925
rhand 15.1016 -20.1561
rfingers 7.12502
rthumb 39.9472 -45.3981
lclavicle -6.2816e-014 -1.90833e-014
lhumerus -43.1939 -3.7303 88.9736
lradius 129.062
lwrist 1.95312
lhand 0.653769 41.3358
lfingers 7.12502
lthumb 26.2164 69.545
rfemur -44.2825 -14.0645 28.4147
rtibia 60.5212
rfoot -16.1995 -13.1645
rtoes -12.6421
lfemur -38.5044 15.0895 -13.8482
ltibia 50.3719
lfoot -17.5047 5.91571
ltoes -6.51649
